<svg xmlns="http://www.w3.org/2000/svg" xmlns:xlink="http://www.w3.org/1999/xlink" width="500" zoomAndPan="magnify" viewBox="0 0 375 374.999991" height="500" preserveAspectRatio="xMidYMid meet" version="1.0"><defs><clipPath id="id1"><path d="M 116.90625 73.132812 L 152 73.132812 L 152 108 L 116.90625 108 Z M 116.90625 73.132812 " clip-rule="nonzero"/></clipPath><clipPath id="id2"><path d="M 172 73.132812 L 208 73.132812 L 208 108 L 172 108 Z M 172 73.132812 " clip-rule="nonzero"/></clipPath><clipPath id="id3"><path d="M 127 150 L 199 150 L 199 237.382812 L 127 237.382812 Z M 127 150 " clip-rule="nonzero"/></clipPath><clipPath id="id4"><path d="M 127 115 L 208.40625 115 L 208.40625 151 L 127 151 Z M 127 115 " clip-rule="nonzero"/></clipPath><clipPath id="id5"><path d="M 167 231 L 252 231 L 252 301.601562 L 167 301.601562 Z M 167 231 " clip-rule="nonzero"/></clipPath><clipPath id="id6"><path d="M 158.871094 155.6875 L 257.871094 155.6875 L 257.871094 250 L 158.871094 250 Z M 158.871094 155.6875 " clip-rule="nonzero"/></clipPath></defs><rect x="-37.5" width="450" fill="#ffffff" y="-37.499999" height="449.999989" fill-opacity="1"/><rect x="-37.5" width="450" fill="#e4b1a5" y="-37.499999" height="449.999989" fill-opacity="1"/><rect x="-37.5" width="450" fill="#ffffff" y="-37.499999" height="449.999989" fill-opacity="1"/><rect x="-37.5" width="450" fill="#e4b1a5" y="-37.499999" height="449.999989" fill-opacity="1"/><path fill="#cf9262" d="M 140.730469 103.058594 L 136.820312 105.554688 L 144.277344 115.390625 L 152.453125 115.390625 L 143.089844 103.058594 Z M 140.730469 103.058594 " fill-opacity="1" fill-rule="nonzero"/><g clip-path="url(#id1)"><path fill="#59371c" d="M 134.304688 73.132812 C 133.738281 73.132812 133.171875 73.160156 132.605469 73.214844 C 132.039062 73.273438 131.476562 73.355469 130.921875 73.464844 C 130.363281 73.578125 129.8125 73.714844 129.269531 73.882812 C 128.726562 74.046875 128.191406 74.238281 127.664062 74.457031 C 127.140625 74.671875 126.628906 74.917969 126.125 75.183594 C 125.625 75.453125 125.136719 75.746094 124.664062 76.0625 C 124.191406 76.378906 123.738281 76.71875 123.296875 77.078125 C 122.859375 77.441406 122.4375 77.820312 122.035156 78.222656 C 121.632812 78.628906 121.253906 79.046875 120.890625 79.488281 C 120.53125 79.929688 120.195312 80.386719 119.878906 80.859375 C 119.5625 81.332031 119.269531 81.820312 119.003906 82.324219 C 118.734375 82.824219 118.492188 83.339844 118.273438 83.863281 C 118.058594 84.390625 117.867188 84.925781 117.699219 85.472656 C 117.535156 86.015625 117.398438 86.566406 117.285156 87.125 C 117.175781 87.683594 117.09375 88.246094 117.035156 88.8125 C 116.980469 89.378906 116.953125 89.949219 116.953125 90.519531 C 116.953125 91.085938 116.980469 91.65625 117.035156 92.222656 C 117.09375 92.789062 117.175781 93.351562 117.285156 93.910156 C 117.398438 94.46875 117.535156 95.019531 117.699219 95.566406 C 117.867188 96.109375 118.058594 96.644531 118.273438 97.171875 C 118.492188 97.695312 118.734375 98.210938 119.003906 98.714844 C 119.269531 99.214844 119.5625 99.703125 119.878906 100.175781 C 120.195312 100.648438 120.53125 101.105469 120.890625 101.546875 C 121.253906 101.988281 121.632812 102.410156 122.035156 102.8125 C 122.4375 103.214844 122.859375 103.597656 123.296875 103.957031 C 123.738281 104.316406 124.191406 104.65625 124.664062 104.972656 C 125.136719 105.289062 125.625 105.582031 126.125 105.851562 C 126.628906 106.117188 127.140625 106.363281 127.664062 106.582031 C 128.191406 106.796875 128.726562 106.988281 129.269531 107.15625 C 129.8125 107.320312 130.363281 107.457031 130.921875 107.570312 C 131.476562 107.679688 132.039062 107.765625 132.605469 107.820312 C 133.171875 107.875 133.738281 107.902344 134.304688 107.902344 C 134.875 107.902344 135.441406 107.875 136.007812 107.820312 C 136.570312 107.765625 137.132812 107.679688 137.691406 107.570312 C 138.25 107.457031 138.800781 107.320312 139.34375 107.15625 C 139.886719 106.988281 140.421875 106.796875 140.945312 106.582031 C 141.472656 106.363281 141.984375 106.117188 142.484375 105.851562 C 142.988281 105.582031 143.472656 105.289062 143.945312 104.972656 C 144.417969 104.65625 144.875 104.316406 145.3125 103.957031 C 145.753906 103.597656 146.175781 103.214844 146.574219 102.8125 C 146.976562 102.410156 147.359375 101.988281 147.71875 101.546875 C 148.078125 101.105469 148.417969 100.648438 148.734375 100.175781 C 149.050781 99.703125 149.339844 99.214844 149.609375 98.714844 C 149.878906 98.210938 150.121094 97.695312 150.335938 97.171875 C 150.554688 96.644531 150.746094 96.109375 150.910156 95.566406 C 151.074219 95.019531 151.214844 94.46875 151.324219 93.910156 C 151.4375 93.351562 151.519531 92.789062 151.574219 92.222656 C 151.628906 91.65625 151.65625 91.085938 151.65625 90.519531 C 151.65625 89.949219 151.628906 89.378906 151.574219 88.8125 C 151.519531 88.246094 151.4375 87.683594 151.324219 87.125 C 151.214844 86.566406 151.074219 86.015625 150.910156 85.472656 C 150.746094 84.925781 150.554688 84.390625 150.335938 83.863281 C 150.121094 83.339844 149.878906 82.824219 149.609375 82.324219 C 149.339844 81.820312 149.050781 81.332031 148.734375 80.859375 C 148.417969 80.386719 148.078125 79.929688 147.71875 79.488281 C 147.359375 79.046875 146.976562 78.628906 146.574219 78.222656 C 146.175781 77.820312 145.753906 77.441406 145.3125 77.078125 C 144.875 76.71875 144.417969 76.378906 143.945312 76.0625 C 143.472656 75.746094 142.988281 75.453125 142.484375 75.183594 C 141.984375 74.917969 141.472656 74.671875 140.945312 74.457031 C 140.421875 74.238281 139.886719 74.046875 139.34375 73.882812 C 138.800781 73.714844 138.25 73.578125 137.691406 73.464844 C 137.132812 73.355469 136.570312 73.273438 136.007812 73.214844 C 135.441406 73.160156 134.875 73.132812 134.304688 73.132812 Z M 120.21875 87.203125 C 120.21875 86.9375 120.246094 86.675781 120.296875 86.414062 C 120.347656 86.15625 120.425781 85.90625 120.527344 85.660156 C 120.625 85.414062 120.75 85.183594 120.898438 84.964844 C 121.042969 84.742188 121.210938 84.539062 121.398438 84.351562 C 121.582031 84.167969 121.785156 84 122.007812 83.851562 C 122.226562 83.703125 122.457031 83.582031 122.703125 83.480469 C 122.945312 83.378906 123.195312 83.300781 123.457031 83.25 C 123.714844 83.199219 123.976562 83.171875 124.238281 83.171875 C 124.503906 83.171875 124.765625 83.199219 125.023438 83.25 C 125.285156 83.300781 125.535156 83.378906 125.777344 83.480469 C 126.023438 83.578125 126.253906 83.703125 126.472656 83.851562 C 126.695312 83.996094 126.898438 84.164062 127.082031 84.351562 C 127.269531 84.539062 127.4375 84.742188 127.582031 84.960938 C 127.730469 85.179688 127.855469 85.414062 127.957031 85.65625 C 128.058594 85.902344 128.132812 86.152344 128.183594 86.414062 C 128.238281 86.671875 128.261719 86.933594 128.261719 87.199219 C 128.261719 87.464844 128.238281 87.726562 128.1875 87.984375 C 128.136719 88.242188 128.058594 88.496094 127.957031 88.742188 C 127.855469 88.984375 127.734375 89.21875 127.585938 89.4375 C 127.441406 89.65625 127.273438 89.859375 127.085938 90.046875 C 126.902344 90.234375 126.699219 90.402344 126.480469 90.550781 C 126.257812 90.695312 126.027344 90.820312 125.785156 90.921875 C 125.539062 91.023438 125.289062 91.101562 125.03125 91.152344 C 124.769531 91.203125 124.507812 91.230469 124.246094 91.230469 C 123.980469 91.230469 123.71875 91.207031 123.460938 91.152344 C 123.203125 91.101562 122.949219 91.027344 122.707031 90.925781 C 122.460938 90.824219 122.230469 90.699219 122.007812 90.554688 C 121.789062 90.40625 121.585938 90.238281 121.398438 90.050781 C 121.210938 89.863281 121.046875 89.660156 120.898438 89.441406 C 120.75 89.222656 120.628906 88.988281 120.527344 88.746094 C 120.425781 88.5 120.347656 88.246094 120.296875 87.988281 C 120.246094 87.730469 120.21875 87.464844 120.21875 87.203125 Z M 127.523438 103.058594 C 127.261719 103.058594 127 103.03125 126.742188 102.980469 C 126.480469 102.929688 126.230469 102.851562 125.988281 102.75 C 125.742188 102.648438 125.511719 102.523438 125.292969 102.378906 C 125.070312 102.230469 124.867188 102.0625 124.683594 101.878906 C 124.496094 101.691406 124.328125 101.488281 124.179688 101.265625 C 124.035156 101.046875 123.910156 100.8125 123.808594 100.570312 C 123.707031 100.324219 123.632812 100.074219 123.582031 99.8125 C 123.53125 99.554688 123.503906 99.292969 123.503906 99.027344 C 123.503906 98.761719 123.53125 98.5 123.582031 98.242188 C 123.632812 97.984375 123.707031 97.730469 123.808594 97.484375 C 123.910156 97.242188 124.035156 97.007812 124.179688 96.789062 C 124.328125 96.570312 124.496094 96.367188 124.683594 96.179688 C 124.867188 95.992188 125.070312 95.824219 125.292969 95.679688 C 125.511719 95.53125 125.742188 95.40625 125.988281 95.304688 C 126.230469 95.203125 126.480469 95.128906 126.742188 95.078125 C 127 95.023438 127.261719 95 127.523438 95 C 127.789062 95 128.050781 95.023438 128.308594 95.078125 C 128.570312 95.128906 128.820312 95.203125 129.0625 95.304688 C 129.308594 95.40625 129.539062 95.53125 129.757812 95.679688 C 129.980469 95.824219 130.183594 95.992188 130.367188 96.179688 C 130.554688 96.367188 130.722656 96.570312 130.867188 96.789062 C 131.015625 97.007812 131.140625 97.242188 131.242188 97.484375 C 131.339844 97.730469 131.417969 97.984375 131.46875 98.242188 C 131.519531 98.5 131.546875 98.761719 131.546875 99.027344 C 131.546875 99.292969 131.519531 99.554688 131.46875 99.8125 C 131.417969 100.074219 131.339844 100.324219 131.242188 100.570312 C 131.140625 100.8125 131.015625 101.046875 130.867188 101.265625 C 130.722656 101.488281 130.554688 101.691406 130.367188 101.878906 C 130.183594 102.0625 129.980469 102.230469 129.757812 102.378906 C 129.539062 102.523438 129.308594 102.648438 129.0625 102.75 C 128.820312 102.851562 128.570312 102.929688 128.308594 102.980469 C 128.050781 103.03125 127.789062 103.058594 127.523438 103.058594 Z M 134.335938 84.128906 C 134.070312 84.128906 133.808594 84.101562 133.550781 84.050781 C 133.292969 84 133.039062 83.925781 132.796875 83.824219 C 132.550781 83.722656 132.320312 83.597656 132.101562 83.453125 C 131.878906 83.304688 131.675781 83.136719 131.488281 82.949219 C 131.304688 82.761719 131.136719 82.558594 130.988281 82.339844 C 130.84375 82.121094 130.71875 81.886719 130.617188 81.640625 C 130.515625 81.398438 130.4375 81.144531 130.386719 80.886719 C 130.335938 80.625 130.308594 80.363281 130.308594 80.101562 C 130.308594 79.835938 130.335938 79.574219 130.386719 79.3125 C 130.4375 79.054688 130.515625 78.800781 130.617188 78.558594 C 130.71875 78.3125 130.84375 78.078125 130.988281 77.859375 C 131.136719 77.640625 131.304688 77.4375 131.488281 77.25 C 131.675781 77.0625 131.878906 76.894531 132.101562 76.75 C 132.320312 76.601562 132.550781 76.476562 132.796875 76.375 C 133.039062 76.273438 133.292969 76.199219 133.550781 76.148438 C 133.808594 76.097656 134.070312 76.070312 134.335938 76.070312 C 134.601562 76.070312 134.863281 76.097656 135.121094 76.148438 C 135.378906 76.199219 135.632812 76.277344 135.875 76.378906 C 136.121094 76.480469 136.351562 76.605469 136.570312 76.753906 C 136.789062 76.898438 136.992188 77.066406 137.179688 77.253906 C 137.367188 77.441406 137.53125 77.648438 137.679688 77.867188 C 137.824219 78.085938 137.949219 78.320312 138.050781 78.566406 C 138.152344 78.808594 138.226562 79.0625 138.277344 79.320312 C 138.328125 79.582031 138.355469 79.84375 138.351562 80.109375 C 138.351562 80.371094 138.328125 80.632812 138.273438 80.894531 C 138.222656 81.152344 138.148438 81.402344 138.046875 81.648438 C 137.945312 81.890625 137.820312 82.121094 137.675781 82.34375 C 137.527344 82.5625 137.363281 82.765625 137.175781 82.953125 C 136.988281 83.136719 136.785156 83.304688 136.566406 83.453125 C 136.347656 83.597656 136.117188 83.722656 135.871094 83.824219 C 135.628906 83.921875 135.378906 84 135.121094 84.050781 C 134.859375 84.101562 134.601562 84.128906 134.335938 84.128906 Z M 141.246094 103.058594 C 140.984375 103.058594 140.722656 103.03125 140.460938 102.980469 C 140.203125 102.929688 139.953125 102.851562 139.707031 102.75 C 139.464844 102.648438 139.230469 102.523438 139.011719 102.378906 C 138.792969 102.230469 138.589844 102.0625 138.402344 101.878906 C 138.214844 101.691406 138.050781 101.488281 137.902344 101.265625 C 137.757812 101.046875 137.632812 100.8125 137.53125 100.570312 C 137.429688 100.324219 137.355469 100.074219 137.300781 99.8125 C 137.25 99.554688 137.226562 99.292969 137.226562 99.027344 C 137.226562 98.761719 137.25 98.5 137.300781 98.242188 C 137.355469 97.984375 137.429688 97.730469 137.53125 97.484375 C 137.632812 97.242188 137.757812 97.007812 137.902344 96.789062 C 138.050781 96.570312 138.214844 96.367188 138.402344 96.179688 C 138.589844 95.992188 138.792969 95.824219 139.011719 95.679688 C 139.230469 95.53125 139.464844 95.40625 139.707031 95.304688 C 139.953125 95.203125 140.203125 95.128906 140.460938 95.078125 C 140.722656 95.023438 140.984375 95 141.246094 95 C 141.511719 95 141.773438 95.023438 142.03125 95.078125 C 142.289062 95.128906 142.542969 95.203125 142.785156 95.304688 C 143.03125 95.40625 143.261719 95.53125 143.480469 95.679688 C 143.699219 95.824219 143.902344 95.992188 144.089844 96.179688 C 144.277344 96.367188 144.445312 96.570312 144.589844 96.789062 C 144.738281 97.007812 144.859375 97.242188 144.960938 97.484375 C 145.0625 97.730469 145.140625 97.984375 145.191406 98.242188 C 145.242188 98.5 145.269531 98.761719 145.269531 99.027344 C 145.269531 99.292969 145.242188 99.554688 145.191406 99.8125 C 145.136719 100.074219 145.0625 100.324219 144.960938 100.570312 C 144.859375 100.8125 144.734375 101.046875 144.589844 101.265625 C 144.441406 101.484375 144.277344 101.6875 144.089844 101.875 C 143.902344 102.0625 143.699219 102.230469 143.480469 102.375 C 143.261719 102.523438 143.027344 102.648438 142.785156 102.75 C 142.542969 102.851562 142.289062 102.925781 142.03125 102.980469 C 141.773438 103.03125 141.511719 103.058594 141.246094 103.058594 Z M 144.367188 91.230469 C 144.101562 91.230469 143.839844 91.207031 143.582031 91.152344 C 143.320312 91.101562 143.070312 91.027344 142.828125 90.925781 C 142.582031 90.824219 142.351562 90.699219 142.128906 90.554688 C 141.910156 90.40625 141.707031 90.238281 141.519531 90.054688 C 141.332031 89.867188 141.167969 89.664062 141.019531 89.441406 C 140.871094 89.222656 140.75 88.992188 140.648438 88.746094 C 140.546875 88.503906 140.46875 88.25 140.417969 87.992188 C 140.367188 87.730469 140.339844 87.46875 140.339844 87.203125 C 140.339844 86.941406 140.367188 86.679688 140.417969 86.417969 C 140.46875 86.160156 140.542969 85.90625 140.644531 85.660156 C 140.746094 85.417969 140.871094 85.183594 141.015625 84.964844 C 141.164062 84.746094 141.328125 84.542969 141.515625 84.355469 C 141.703125 84.167969 141.90625 84 142.125 83.851562 C 142.34375 83.707031 142.578125 83.582031 142.820312 83.480469 C 143.066406 83.378906 143.316406 83.300781 143.574219 83.25 C 143.835938 83.199219 144.097656 83.171875 144.359375 83.171875 C 144.625 83.171875 144.886719 83.199219 145.144531 83.25 C 145.402344 83.300781 145.65625 83.378906 145.898438 83.480469 C 146.144531 83.578125 146.375 83.703125 146.59375 83.851562 C 146.816406 83.996094 147.019531 84.164062 147.203125 84.351562 C 147.390625 84.539062 147.558594 84.742188 147.703125 84.960938 C 147.851562 85.183594 147.976562 85.414062 148.078125 85.660156 C 148.175781 85.902344 148.253906 86.15625 148.304688 86.414062 C 148.355469 86.675781 148.382812 86.9375 148.382812 87.203125 C 148.382812 87.464844 148.355469 87.726562 148.304688 87.984375 C 148.253906 88.242188 148.179688 88.496094 148.078125 88.738281 C 147.976562 88.980469 147.855469 89.214844 147.710938 89.433594 C 147.5625 89.652344 147.398438 89.855469 147.210938 90.042969 C 147.027344 90.230469 146.824219 90.398438 146.605469 90.542969 C 146.386719 90.691406 146.15625 90.816406 145.914062 90.917969 C 145.671875 91.019531 145.421875 91.097656 145.164062 91.148438 C 144.90625 91.203125 144.644531 91.230469 144.382812 91.230469 Z M 144.367188 91.230469 " fill-opacity="1" fill-rule="nonzero"/></g><path fill="#cf9262" d="M 180.082031 103.058594 L 170.71875 115.390625 L 178.894531 115.390625 L 186.355469 105.554688 L 182.4375 103.058594 Z M 180.082031 103.058594 " fill-opacity="1" fill-rule="nonzero"/><g clip-path="url(#id2)"><path fill="#59371c" d="M 172.867188 90.519531 C 172.867188 91.085938 172.894531 91.65625 172.949219 92.222656 C 173.007812 92.789062 173.089844 93.351562 173.199219 93.910156 C 173.3125 94.46875 173.449219 95.019531 173.613281 95.566406 C 173.777344 96.109375 173.96875 96.644531 174.1875 97.171875 C 174.40625 97.695312 174.648438 98.210938 174.914062 98.714844 C 175.183594 99.214844 175.476562 99.703125 175.792969 100.175781 C 176.105469 100.648438 176.445312 101.105469 176.804688 101.546875 C 177.167969 101.988281 177.546875 102.410156 177.949219 102.8125 C 178.351562 103.214844 178.773438 103.597656 179.210938 103.957031 C 179.652344 104.316406 180.105469 104.65625 180.578125 104.972656 C 181.050781 105.289062 181.539062 105.582031 182.039062 105.851562 C 182.539062 106.117188 183.054688 106.363281 183.578125 106.582031 C 184.105469 106.796875 184.636719 106.988281 185.183594 107.15625 C 185.726562 107.320312 186.277344 107.457031 186.835938 107.570312 C 187.390625 107.679688 187.953125 107.765625 188.519531 107.820312 C 189.085938 107.875 189.652344 107.902344 190.21875 107.902344 C 190.789062 107.902344 191.355469 107.875 191.921875 107.820312 C 192.484375 107.765625 193.046875 107.679688 193.605469 107.570312 C 194.160156 107.457031 194.710938 107.320312 195.257812 107.15625 C 195.800781 106.988281 196.335938 106.796875 196.859375 106.582031 C 197.386719 106.363281 197.898438 106.117188 198.398438 105.851562 C 198.902344 105.582031 199.386719 105.289062 199.859375 104.972656 C 200.332031 104.65625 200.789062 104.316406 201.226562 103.957031 C 201.667969 103.597656 202.085938 103.214844 202.488281 102.8125 C 202.890625 102.410156 203.273438 101.988281 203.632812 101.546875 C 203.992188 101.105469 204.332031 100.648438 204.648438 100.175781 C 204.964844 99.703125 205.253906 99.214844 205.523438 98.714844 C 205.789062 98.210938 206.035156 97.695312 206.25 97.171875 C 206.46875 96.644531 206.660156 96.109375 206.824219 95.566406 C 206.988281 95.019531 207.128906 94.46875 207.238281 93.910156 C 207.347656 93.351562 207.433594 92.789062 207.488281 92.222656 C 207.542969 91.65625 207.570312 91.085938 207.570312 90.519531 C 207.570312 89.949219 207.542969 89.378906 207.488281 88.8125 C 207.433594 88.246094 207.347656 87.683594 207.238281 87.125 C 207.128906 86.566406 206.988281 86.015625 206.824219 85.472656 C 206.660156 84.925781 206.46875 84.390625 206.25 83.863281 C 206.035156 83.339844 205.789062 82.824219 205.523438 82.324219 C 205.253906 81.820312 204.964844 81.332031 204.648438 80.859375 C 204.332031 80.386719 203.992188 79.929688 203.632812 79.488281 C 203.273438 79.046875 202.890625 78.628906 202.488281 78.222656 C 202.085938 77.820312 201.667969 77.441406 201.226562 77.078125 C 200.789062 76.71875 200.332031 76.378906 199.859375 76.0625 C 199.386719 75.746094 198.902344 75.453125 198.398438 75.183594 C 197.898438 74.917969 197.386719 74.671875 196.859375 74.457031 C 196.335938 74.238281 195.800781 74.046875 195.257812 73.882812 C 194.710938 73.714844 194.160156 73.578125 193.605469 73.464844 C 193.046875 73.355469 192.484375 73.273438 191.921875 73.214844 C 191.355469 73.160156 190.789062 73.132812 190.21875 73.132812 C 189.652344 73.132812 189.085938 73.160156 188.519531 73.214844 C 187.953125 73.273438 187.390625 73.355469 186.835938 73.464844 C 186.277344 73.578125 185.726562 73.714844 185.183594 73.882812 C 184.636719 74.046875 184.105469 74.238281 183.578125 74.457031 C 183.054688 74.671875 182.539062 74.917969 182.039062 75.183594 C 181.539062 75.453125 181.050781 75.746094 180.578125 76.0625 C 180.105469 76.378906 179.652344 76.71875 179.210938 77.078125 C 178.773438 77.441406 178.351562 77.820312 177.949219 78.222656 C 177.546875 78.628906 177.167969 79.046875 176.804688 79.488281 C 176.445312 79.929688 176.105469 80.386719 175.792969 80.859375 C 175.476562 81.332031 175.183594 81.820312 174.914062 82.324219 C 174.648438 82.824219 174.40625 83.339844 174.1875 83.863281 C 173.96875 84.390625 173.777344 84.925781 173.613281 85.472656 C 173.449219 86.015625 173.3125 86.566406 173.199219 87.125 C 173.089844 87.683594 173.007812 88.246094 172.949219 88.8125 C 172.894531 89.378906 172.867188 89.949219 172.867188 90.519531 Z M 200.289062 91.226562 C 200.023438 91.226562 199.761719 91.199219 199.503906 91.148438 C 199.246094 91.097656 198.992188 91.023438 198.75 90.921875 C 198.503906 90.820312 198.273438 90.695312 198.054688 90.550781 C 197.832031 90.402344 197.628906 90.234375 197.441406 90.050781 C 197.257812 89.863281 197.089844 89.660156 196.941406 89.4375 C 196.796875 89.21875 196.671875 88.988281 196.570312 88.742188 C 196.46875 88.496094 196.390625 88.246094 196.339844 87.988281 C 196.289062 87.726562 196.261719 87.464844 196.261719 87.199219 C 196.261719 86.9375 196.289062 86.671875 196.339844 86.414062 C 196.390625 86.15625 196.464844 85.902344 196.566406 85.65625 C 196.667969 85.414062 196.792969 85.179688 196.9375 84.960938 C 197.085938 84.742188 197.253906 84.535156 197.4375 84.351562 C 197.625 84.164062 197.828125 83.996094 198.046875 83.847656 C 198.265625 83.703125 198.5 83.578125 198.742188 83.476562 C 198.988281 83.375 199.238281 83.296875 199.496094 83.246094 C 199.757812 83.195312 200.019531 83.167969 200.28125 83.167969 C 200.546875 83.167969 200.808594 83.195312 201.066406 83.246094 C 201.324219 83.296875 201.578125 83.375 201.820312 83.472656 C 202.066406 83.574219 202.296875 83.699219 202.515625 83.847656 C 202.738281 83.992188 202.941406 84.160156 203.125 84.347656 C 203.3125 84.535156 203.480469 84.738281 203.628906 84.957031 C 203.773438 85.179688 203.898438 85.410156 204 85.65625 C 204.101562 85.898438 204.175781 86.152344 204.226562 86.410156 C 204.28125 86.671875 204.304688 86.933594 204.304688 87.199219 C 204.304688 87.460938 204.28125 87.722656 204.230469 87.984375 C 204.179688 88.242188 204.101562 88.496094 204 88.738281 C 203.902344 88.984375 203.777344 89.21875 203.632812 89.4375 C 203.484375 89.65625 203.316406 89.863281 203.132812 90.050781 C 202.945312 90.234375 202.742188 90.402344 202.523438 90.550781 C 202.304688 90.699219 202.070312 90.820312 201.828125 90.921875 C 201.582031 91.023438 201.332031 91.101562 201.074219 91.152344 C 200.8125 91.203125 200.550781 91.230469 200.289062 91.230469 Z M 192.976562 99.027344 C 192.976562 98.761719 193.003906 98.5 193.054688 98.242188 C 193.105469 97.984375 193.183594 97.730469 193.285156 97.488281 C 193.386719 97.242188 193.507812 97.011719 193.65625 96.789062 C 193.800781 96.570312 193.96875 96.367188 194.15625 96.179688 C 194.34375 95.992188 194.546875 95.824219 194.765625 95.679688 C 194.984375 95.53125 195.214844 95.40625 195.460938 95.304688 C 195.703125 95.203125 195.957031 95.128906 196.214844 95.078125 C 196.472656 95.023438 196.734375 95 197 95 C 197.261719 95 197.523438 95.023438 197.78125 95.074219 C 198.042969 95.128906 198.292969 95.203125 198.539062 95.304688 C 198.78125 95.40625 199.011719 95.53125 199.230469 95.675781 C 199.453125 95.824219 199.65625 95.992188 199.84375 96.175781 C 200.027344 96.363281 200.195312 96.566406 200.34375 96.789062 C 200.488281 97.007812 200.613281 97.238281 200.714844 97.484375 C 200.816406 97.726562 200.890625 97.980469 200.945312 98.238281 C 200.996094 98.5 201.019531 98.761719 201.019531 99.023438 C 201.023438 99.289062 200.996094 99.550781 200.945312 99.8125 C 200.894531 100.070312 200.816406 100.324219 200.714844 100.566406 C 200.617188 100.8125 200.492188 101.042969 200.34375 101.265625 C 200.199219 101.484375 200.03125 101.6875 199.847656 101.875 C 199.660156 102.0625 199.457031 102.230469 199.238281 102.375 C 199.019531 102.523438 198.785156 102.648438 198.542969 102.75 C 198.296875 102.851562 198.046875 102.925781 197.789062 102.980469 C 197.53125 103.03125 197.269531 103.058594 197.003906 103.058594 C 196.738281 103.058594 196.476562 103.03125 196.21875 102.980469 C 195.960938 102.929688 195.707031 102.851562 195.464844 102.75 C 195.21875 102.652344 194.988281 102.527344 194.769531 102.378906 C 194.546875 102.234375 194.34375 102.066406 194.15625 101.878906 C 193.972656 101.691406 193.804688 101.488281 193.65625 101.269531 C 193.511719 101.046875 193.386719 100.816406 193.285156 100.570312 C 193.183594 100.328125 193.105469 100.074219 193.054688 99.816406 C 193.003906 99.554688 192.976562 99.292969 192.976562 99.027344 Z M 186.175781 80.109375 C 186.175781 79.84375 186.199219 79.582031 186.253906 79.320312 C 186.304688 79.0625 186.378906 78.808594 186.480469 78.566406 C 186.578125 78.320312 186.703125 78.085938 186.851562 77.867188 C 186.996094 77.648438 187.164062 77.441406 187.347656 77.253906 C 187.535156 77.066406 187.738281 76.902344 187.957031 76.753906 C 188.175781 76.605469 188.410156 76.480469 188.652344 76.378906 C 188.898438 76.277344 189.148438 76.203125 189.40625 76.148438 C 189.667969 76.097656 189.929688 76.070312 190.191406 76.070312 C 190.457031 76.070312 190.71875 76.09375 190.976562 76.148438 C 191.234375 76.199219 191.488281 76.273438 191.730469 76.375 C 191.976562 76.476562 192.207031 76.601562 192.429688 76.746094 C 192.648438 76.894531 192.851562 77.0625 193.039062 77.246094 C 193.226562 77.433594 193.390625 77.636719 193.539062 77.859375 C 193.6875 78.078125 193.808594 78.308594 193.910156 78.554688 C 194.011719 78.800781 194.089844 79.050781 194.140625 79.308594 C 194.191406 79.570312 194.21875 79.832031 194.21875 80.097656 C 194.21875 80.363281 194.195312 80.625 194.140625 80.882812 C 194.089844 81.144531 194.015625 81.394531 193.914062 81.640625 C 193.8125 81.882812 193.6875 82.117188 193.542969 82.335938 C 193.394531 82.558594 193.230469 82.761719 193.042969 82.949219 C 192.855469 83.136719 192.652344 83.300781 192.433594 83.449219 C 192.214844 83.597656 191.980469 83.71875 191.738281 83.820312 C 191.492188 83.921875 191.242188 84 190.984375 84.050781 C 190.722656 84.101562 190.460938 84.128906 190.199219 84.128906 C 189.933594 84.128906 189.671875 84.101562 189.414062 84.050781 C 189.15625 84 188.90625 83.925781 188.660156 83.824219 C 188.417969 83.722656 188.1875 83.597656 187.964844 83.453125 C 187.746094 83.304688 187.542969 83.136719 187.355469 82.953125 C 187.171875 82.765625 187.003906 82.5625 186.855469 82.34375 C 186.710938 82.125 186.585938 81.890625 186.484375 81.648438 C 186.382812 81.402344 186.308594 81.152344 186.253906 80.894531 C 186.203125 80.632812 186.175781 80.371094 186.175781 80.109375 Z M 179.234375 99.027344 C 179.234375 98.761719 179.261719 98.5 179.3125 98.242188 C 179.363281 97.984375 179.441406 97.730469 179.542969 97.484375 C 179.640625 97.242188 179.765625 97.007812 179.914062 96.789062 C 180.058594 96.570312 180.226562 96.367188 180.414062 96.179688 C 180.601562 95.992188 180.804688 95.824219 181.023438 95.679688 C 181.242188 95.53125 181.472656 95.40625 181.71875 95.304688 C 181.960938 95.203125 182.214844 95.128906 182.472656 95.078125 C 182.730469 95.023438 182.992188 95 183.257812 95 C 183.519531 95 183.78125 95.023438 184.042969 95.078125 C 184.300781 95.128906 184.550781 95.203125 184.796875 95.304688 C 185.039062 95.40625 185.269531 95.53125 185.492188 95.679688 C 185.710938 95.824219 185.914062 95.992188 186.101562 96.179688 C 186.285156 96.367188 186.453125 96.570312 186.601562 96.789062 C 186.746094 97.007812 186.871094 97.242188 186.972656 97.484375 C 187.074219 97.730469 187.148438 97.984375 187.199219 98.242188 C 187.253906 98.5 187.277344 98.761719 187.277344 99.027344 C 187.277344 99.292969 187.253906 99.554688 187.199219 99.8125 C 187.148438 100.074219 187.074219 100.324219 186.972656 100.570312 C 186.871094 100.8125 186.746094 101.046875 186.601562 101.265625 C 186.453125 101.488281 186.285156 101.691406 186.101562 101.878906 C 185.914062 102.0625 185.710938 102.230469 185.492188 102.378906 C 185.269531 102.523438 185.039062 102.648438 184.796875 102.75 C 184.550781 102.851562 184.300781 102.929688 184.042969 102.980469 C 183.78125 103.03125 183.519531 103.058594 183.257812 103.058594 C 182.992188 103.058594 182.730469 103.03125 182.472656 102.980469 C 182.214844 102.929688 181.960938 102.851562 181.71875 102.75 C 181.472656 102.652344 181.242188 102.527344 181.023438 102.378906 C 180.804688 102.230469 180.601562 102.066406 180.414062 101.878906 C 180.226562 101.691406 180.058594 101.488281 179.914062 101.265625 C 179.765625 101.046875 179.644531 100.816406 179.542969 100.570312 C 179.441406 100.324219 179.367188 100.074219 179.316406 99.8125 C 179.265625 99.554688 179.238281 99.292969 179.238281 99.027344 Z M 176.125 87.203125 C 176.125 86.9375 176.152344 86.675781 176.203125 86.414062 C 176.253906 86.15625 176.328125 85.902344 176.429688 85.660156 C 176.53125 85.414062 176.65625 85.183594 176.800781 84.964844 C 176.949219 84.742188 177.117188 84.539062 177.304688 84.351562 C 177.488281 84.164062 177.691406 84 177.914062 83.851562 C 178.132812 83.703125 178.363281 83.582031 178.609375 83.480469 C 178.851562 83.378906 179.101562 83.300781 179.363281 83.25 C 179.621094 83.199219 179.882812 83.171875 180.144531 83.171875 C 180.410156 83.171875 180.671875 83.199219 180.929688 83.25 C 181.191406 83.300781 181.441406 83.378906 181.683594 83.480469 C 181.929688 83.582031 182.160156 83.703125 182.378906 83.851562 C 182.601562 84 182.804688 84.164062 182.988281 84.351562 C 183.175781 84.539062 183.34375 84.742188 183.488281 84.964844 C 183.636719 85.183594 183.761719 85.414062 183.863281 85.660156 C 183.960938 85.902344 184.039062 86.15625 184.089844 86.414062 C 184.140625 86.675781 184.167969 86.9375 184.167969 87.203125 C 184.167969 87.464844 184.140625 87.726562 184.089844 87.988281 C 184.039062 88.246094 183.960938 88.5 183.863281 88.742188 C 183.761719 88.988281 183.636719 89.21875 183.488281 89.441406 C 183.34375 89.660156 183.175781 89.863281 182.988281 90.050781 C 182.804688 90.238281 182.601562 90.40625 182.378906 90.550781 C 182.160156 90.699219 181.929688 90.824219 181.683594 90.925781 C 181.441406 91.023438 181.191406 91.101562 180.929688 91.152344 C 180.671875 91.203125 180.410156 91.230469 180.144531 91.230469 C 179.882812 91.230469 179.621094 91.203125 179.363281 91.152344 C 179.101562 91.101562 178.851562 91.023438 178.609375 90.925781 C 178.363281 90.824219 178.132812 90.699219 177.914062 90.550781 C 177.695312 90.40625 177.492188 90.238281 177.304688 90.050781 C 177.117188 89.863281 176.953125 89.660156 176.804688 89.441406 C 176.660156 89.21875 176.535156 88.988281 176.433594 88.742188 C 176.332031 88.5 176.257812 88.246094 176.207031 87.988281 C 176.15625 87.726562 176.128906 87.464844 176.128906 87.203125 Z M 176.125 87.203125 " fill-opacity="1" fill-rule="nonzero"/></g><g clip-path="url(#id3)"><path fill="#cf9262" d="M 193.777344 232.015625 L 174.605469 150.089844 L 170.171875 150.089844 L 180.058594 192.359375 L 145.324219 192.359375 L 155.214844 150.089844 L 150.777344 150.089844 L 131.613281 232.015625 L 127.988281 232.015625 L 127.988281 237.359375 L 139.511719 237.359375 L 139.511719 232.015625 L 136.046875 232.015625 L 144.011719 197.976562 L 181.375 197.976562 L 189.339844 232.015625 L 186.625 232.015625 L 186.625 237.359375 L 198.152344 237.359375 L 198.152344 232.015625 Z M 193.777344 232.015625 " fill-opacity="1" fill-rule="nonzero"/></g><g clip-path="url(#id4)"><path fill="#59371c" d="M 208.355469 119.503906 L 193.710938 125.234375 L 193.710938 124.5625 L 189.292969 124.5625 L 189.292969 119.730469 C 189.292969 119.421875 189.261719 119.117188 189.203125 118.816406 C 189.140625 118.515625 189.054688 118.222656 188.9375 117.9375 C 188.820312 117.65625 188.675781 117.386719 188.507812 117.128906 C 188.335938 116.875 188.144531 116.636719 187.925781 116.421875 C 187.710938 116.203125 187.472656 116.007812 187.21875 115.835938 C 186.964844 115.664062 186.695312 115.519531 186.414062 115.402344 C 186.128906 115.285156 185.839844 115.195312 185.539062 115.132812 C 185.238281 115.074219 184.933594 115.042969 184.628906 115.039062 L 140.140625 115.039062 C 139.832031 115.039062 139.527344 115.070312 139.226562 115.128906 C 138.925781 115.191406 138.632812 115.28125 138.347656 115.398438 C 138.066406 115.515625 137.792969 115.660156 137.539062 115.832031 C 137.285156 116 137.046875 116.195312 136.828125 116.414062 C 136.613281 116.632812 136.417969 116.867188 136.246094 117.125 C 136.074219 117.378906 135.929688 117.652344 135.8125 117.933594 C 135.695312 118.21875 135.605469 118.511719 135.546875 118.816406 C 135.484375 119.117188 135.457031 119.421875 135.457031 119.730469 L 135.457031 122.773438 L 130.875 122.773438 L 130.875 119.507812 L 127.125 119.507812 L 127.125 146.019531 L 130.875 146.019531 L 130.875 142.761719 L 135.457031 142.761719 L 135.457031 145.804688 C 135.457031 146.113281 135.484375 146.417969 135.546875 146.71875 C 135.605469 147.019531 135.695312 147.3125 135.8125 147.597656 C 135.929688 147.882812 136.074219 148.152344 136.246094 148.410156 C 136.417969 148.664062 136.613281 148.902344 136.828125 149.117188 C 137.046875 149.335938 137.285156 149.53125 137.539062 149.703125 C 137.796875 149.871094 138.066406 150.015625 138.347656 150.132812 C 138.632812 150.25 138.925781 150.339844 139.226562 150.398438 C 139.527344 150.460938 139.832031 150.488281 140.140625 150.488281 L 184.628906 150.488281 C 184.933594 150.488281 185.238281 150.460938 185.539062 150.398438 C 185.84375 150.339844 186.132812 150.25 186.417969 150.132812 C 186.703125 150.015625 186.972656 149.871094 187.226562 149.703125 C 187.484375 149.53125 187.71875 149.335938 187.9375 149.117188 C 188.15625 148.902344 188.347656 148.664062 188.519531 148.410156 C 188.691406 148.152344 188.835938 147.882812 188.953125 147.597656 C 189.070312 147.3125 189.160156 147.019531 189.21875 146.71875 C 189.277344 146.417969 189.308594 146.113281 189.308594 145.804688 L 189.308594 140.9375 L 193.730469 140.9375 L 193.730469 139.910156 L 208.375 145.996094 Z M 208.355469 119.503906 " fill-opacity="1" fill-rule="nonzero"/></g><path fill="#fb9f89" d="M 142.765625 121.882812 L 180.949219 121.882812 L 180.949219 144.296875 L 142.765625 144.296875 Z M 142.765625 121.882812 " fill-opacity="1" fill-rule="nonzero"/><g clip-path="url(#id5)"><path fill="#965f32" d="M 251.144531 233.085938 C 250.242188 233.3125 249.566406 233.3125 248.667969 233.3125 C 242.59375 233.3125 237.191406 233.085938 230.886719 232.40625 C 212.203125 230.371094 193.515625 231.5 174.835938 231.050781 L 174.386719 231.726562 C 169.695312 236.007812 168.441406 240.414062 167.40625 241.449219 C 167.632812 243.707031 169.660156 248.234375 170.554688 250.945312 C 173.257812 258.855469 175.730469 266.996094 177.535156 275.132812 C 178.210938 278.753906 179.113281 282.367188 180.238281 285.984375 C 181.140625 289.378906 180.914062 290.507812 184.515625 290.734375 C 188.222656 290.917969 192.386719 290.1875 196.257812 289.800781 C 197.757812 294.230469 199.007812 297.289062 199.007812 297.53125 C 199.007812 297.605469 198.992188 297.6875 198.960938 297.769531 C 198.605469 298.8125 196.175781 300.453125 196.644531 300.921875 C 197.152344 301.433594 206.097656 301.601562 206.097656 301.601562 L 205.910156 298.316406 C 205.910156 298.316406 205.578125 294.226562 205.300781 289.453125 C 208.632812 289.402344 211.9375 289.386719 215.207031 289.382812 C 214.929688 294.183594 214.597656 298.316406 214.597656 298.316406 L 214.402344 301.601562 C 214.402344 301.601562 223.351562 301.433594 223.859375 300.921875 C 224.328125 300.453125 221.898438 298.8125 221.542969 297.769531 C 221.511719 297.691406 221.492188 297.605469 221.492188 297.53125 C 221.492188 297.308594 222.535156 294.15625 223.851562 289.65625 C 228.261719 290.011719 233.0625 290.433594 236.734375 289.148438 C 237.183594 281.238281 238.761719 270.160156 241.234375 263.152344 C 243.9375 256.144531 247.3125 249.589844 249.792969 242.808594 C 250.917969 239.636719 250.691406 236.476562 251.820312 233.535156 L 251.144531 233.085938 " fill-opacity="1" fill-rule="nonzero"/></g><path fill="#965f32" d="M 171.238281 206.433594 C 171.84375 206.441406 172.449219 206.457031 173.03125 206.605469 C 173.410156 206.6875 173.707031 206.875 174 207.078125 C 174.015625 207.121094 174.015625 207.164062 174.042969 207.207031 C 174.136719 207.40625 174.328125 207.449219 174.503906 207.40625 C 174.734375 207.511719 174.925781 207.285156 174.890625 207.066406 C 174.890625 207.050781 174.882812 207.042969 174.882812 207.023438 C 174.882812 207 174.890625 207 174.890625 206.972656 C 174.910156 206.335938 175.015625 205.765625 175.296875 205.179688 C 175.597656 204.582031 176.207031 204.164062 176.40625 203.539062 C 176.515625 203.171875 176.164062 202.917969 175.84375 202.972656 C 175.070312 203.105469 174.527344 204.042969 174.207031 204.703125 C 174 204.191406 173.609375 203.8125 172.925781 203.773438 C 172.691406 203.746094 172.519531 203.9375 172.449219 204.121094 C 172.300781 204.570312 172.261719 205.058594 172.371094 205.492188 C 171.964844 205.46875 171.558594 205.46875 171.238281 205.476562 C 170.625 205.492188 170.625 206.414062 171.238281 206.433594 " fill-opacity="1" fill-rule="nonzero"/><path fill="#965f32" d="M 218.144531 169.15625 C 218.03125 169.398438 217.84375 169.574219 217.625 169.738281 C 217.722656 169.46875 217.871094 169.25 218.144531 169.15625 Z M 214.855469 168.175781 C 215.546875 168.417969 216.023438 168.773438 216.265625 169.503906 C 216.457031 170.089844 216.300781 170.660156 216.300781 171.242188 C 216.265625 171.339844 216.277344 171.460938 216.328125 171.554688 C 216.34375 171.597656 216.34375 171.652344 216.34375 171.6875 C 216.425781 172.070312 216.976562 172.234375 217.238281 171.9375 C 217.332031 171.824219 217.398438 171.703125 217.453125 171.566406 C 217.859375 171.433594 218.25 171.257812 218.640625 171.121094 C 219.496094 170.835938 220.136719 171.105469 220.949219 171.347656 C 221.261719 171.445312 221.425781 171.105469 221.332031 170.863281 C 220.898438 169.84375 219.859375 169.617188 218.804688 169.808594 C 218.976562 169.453125 219.097656 169.070312 219.074219 168.652344 C 219.0625 168.449219 218.898438 168.246094 218.667969 168.261719 C 218.03125 168.285156 217.574219 168.488281 217.261719 168.84375 C 216.847656 167.894531 215.9375 167.148438 214.855469 167.433594 C 214.464844 167.539062 214.507812 168.054688 214.855469 168.175781 " fill-opacity="1" fill-rule="nonzero"/><path fill="#965f32" d="M 241.746094 220.972656 C 242.171875 220.847656 242.519531 220.847656 242.898438 221.066406 C 243.128906 221.199219 243.25 221.257812 243.46875 221.230469 C 243.453125 221.257812 243.453125 221.269531 243.453125 221.285156 C 243.304688 221.746094 243.925781 221.9375 244.167969 221.582031 C 244.613281 220.980469 244.941406 220.320312 245.398438 219.753906 C 245.859375 219.195312 246.449219 219.101562 246.992188 218.71875 C 247.113281 218.625 247.167969 218.449219 247.042969 218.328125 C 246.394531 217.730469 245.425781 218.257812 244.898438 218.746094 C 244.570312 219.042969 244.316406 219.414062 244.085938 219.789062 C 244.222656 219.195312 244.007812 218.433594 243.652344 218 C 243.410156 217.71875 242.976562 217.902344 242.871094 218.207031 C 242.683594 218.789062 242.683594 219.371094 242.84375 219.910156 C 242.359375 219.761719 241.84375 219.902344 241.398438 220.144531 C 240.957031 220.386719 241.261719 221.136719 241.746094 220.972656 " fill-opacity="1" fill-rule="nonzero"/><g clip-path="url(#id6)"><path fill="#ebdacc" d="M 217.625 169.738281 C 217.84375 169.574219 218.03125 169.398438 218.144531 169.15625 C 217.871094 169.25 217.722656 169.46875 217.625 169.738281 Z M 243.453125 221.285156 C 243.453125 221.269531 243.453125 221.257812 243.46875 221.230469 C 243.25 221.257812 243.128906 221.199219 242.898438 221.066406 C 242.519531 220.847656 242.171875 220.847656 241.746094 220.972656 C 241.261719 221.136719 240.953125 220.386719 241.398438 220.144531 C 241.84375 219.902344 242.359375 219.761719 242.84375 219.910156 C 242.683594 219.371094 242.683594 218.789062 242.871094 218.207031 C 242.976562 217.902344 243.410156 217.71875 243.652344 218 C 244.007812 218.433594 244.222656 219.195312 244.085938 219.789062 C 244.316406 219.414062 244.570312 219.042969 244.898438 218.746094 C 245.425781 218.257812 246.394531 217.730469 247.042969 218.328125 C 247.167969 218.449219 247.113281 218.625 246.992188 218.71875 C 246.449219 219.101562 245.859375 219.195312 245.398438 219.753906 C 244.941406 220.320312 244.613281 220.980469 244.167969 221.582031 C 243.925781 221.9375 243.304688 221.746094 243.453125 221.285156 Z M 220.949219 171.347656 C 220.136719 171.105469 219.496094 170.835938 218.640625 171.121094 C 218.25 171.257812 217.859375 171.433594 217.453125 171.566406 C 217.398438 171.703125 217.332031 171.824219 217.238281 171.9375 C 216.976562 172.234375 216.425781 172.070312 216.34375 171.6875 C 216.34375 171.652344 216.34375 171.597656 216.328125 171.554688 C 216.277344 171.460938 216.265625 171.339844 216.300781 171.242188 C 216.300781 170.660156 216.457031 170.089844 216.265625 169.503906 C 216.023438 168.773438 215.546875 168.417969 214.855469 168.175781 C 214.507812 168.054688 214.464844 167.539062 214.855469 167.433594 C 215.9375 167.148438 216.847656 167.894531 217.261719 168.84375 C 217.574219 168.488281 218.03125 168.285156 218.667969 168.261719 C 218.898438 168.246094 219.0625 168.449219 219.074219 168.652344 C 219.097656 169.070312 218.976562 169.453125 218.804688 169.808594 C 219.859375 169.617188 220.898438 169.84375 221.332031 170.863281 C 221.425781 171.105469 221.261719 171.445312 220.949219 171.347656 Z M 171.238281 206.433594 C 170.625 206.414062 170.625 205.492188 171.238281 205.476562 C 171.558594 205.46875 171.964844 205.46875 172.371094 205.492188 C 172.261719 205.058594 172.300781 204.570312 172.449219 204.121094 C 172.519531 203.9375 172.691406 203.746094 172.925781 203.773438 C 173.609375 203.8125 174 204.191406 174.207031 204.703125 C 174.527344 204.042969 175.070312 203.105469 175.84375 202.972656 C 176.164062 202.917969 176.515625 203.171875 176.40625 203.539062 C 176.207031 204.164062 175.597656 204.582031 175.296875 205.179688 C 175.015625 205.765625 174.910156 206.335938 174.890625 206.972656 C 174.890625 207 174.882812 207 174.882812 207.023438 C 174.882812 207.042969 174.890625 207.050781 174.890625 207.066406 C 174.925781 207.285156 174.734375 207.511719 174.503906 207.40625 C 174.328125 207.449219 174.136719 207.40625 174.042969 207.207031 C 174.015625 207.164062 174.015625 207.121094 174 207.078125 C 173.707031 206.875 173.410156 206.6875 173.03125 206.605469 C 172.449219 206.457031 171.84375 206.441406 171.238281 206.433594 Z M 257.183594 215.652344 C 256.671875 214.582031 255.554688 213.648438 254.457031 213.277344 C 254.066406 213.144531 253.675781 213.101562 253.285156 213.117188 C 252.246094 210.199219 250.542969 207.378906 248.179688 206.09375 C 248.472656 205.753906 248.742188 205.398438 248.992188 205.058594 C 250.3125 203.105469 250.769531 199.894531 249.355469 197.921875 C 251.070312 196 251.511719 193.136719 250.664062 190.460938 C 249.839844 187.875 247.355469 185.214844 244.585938 184.644531 C 244.785156 182.695312 242.964844 180.816406 241.316406 180.167969 C 241.15625 180.101562 240.992188 180.074219 240.828125 180.035156 C 242.171875 178.488281 242.664062 176.113281 242.292969 174.199219 C 241.992188 172.765625 240.941406 171.582031 239.601562 171.050781 C 239.007812 170.824219 238.386719 170.78125 237.78125 170.878906 C 237.425781 170.242188 237.050781 169.644531 236.65625 169.113281 C 235.226562 167.15625 233.375 165.679688 231.375 164.554688 C 231.632812 162.886719 230.378906 161.625 228.785156 160.957031 C 228.015625 160.652344 227.21875 160.636719 226.457031 160.824219 C 226.457031 160.808594 226.457031 160.800781 226.457031 160.800781 C 225.609375 158.382812 222.542969 158 220.492188 158.871094 C 219.195312 159.425781 218.222656 160.40625 217.773438 161.597656 C 217.871094 161.015625 217.871094 160.417969 217.789062 159.851562 C 217.617188 158.53125 216.441406 157.382812 215.289062 156.863281 C 213.753906 156.171875 211.617188 156.199219 209.972656 156.984375 C 207.339844 156.539062 204.421875 156.78125 201.652344 157.558594 C 201.597656 157.21875 201.433594 156.890625 201.082031 156.6875 C 199.785156 155.914062 198.09375 155.359375 196.597656 155.886719 C 195.195312 156.375 194.015625 157.367188 193.261719 158.644531 C 192.507812 159.886719 192.371094 161.355469 192.96875 162.652344 C 191.898438 163.835938 191.089844 165.164062 190.65625 166.601562 C 190.414062 167.417969 190.222656 168.390625 190.234375 169.46875 C 189.074219 168.773438 187.507812 168.652344 186.277344 169.140625 C 184.578125 169.832031 183.375 170.984375 182.714844 172.707031 C 182.691406 172.816406 182.660156 172.914062 182.632812 173.019531 C 180.457031 172.582031 178.484375 172.3125 176.378906 173.574219 C 174.796875 174.523438 173.574219 176.21875 173.140625 178.027344 C 172.773438 179.574219 173.140625 181.441406 174.433594 182.460938 C 174.492188 182.503906 174.542969 182.53125 174.597656 182.570312 C 172.691406 187.199219 172.449219 192.363281 175.261719 194.34375 C 175.03125 194.34375 174.796875 194.371094 174.570312 194.382812 C 174.152344 192.867188 172.898438 191.617188 171.300781 191.304688 C 169.382812 190.953125 167.546875 191.886719 166.113281 193.09375 C 164.792969 194.222656 163.964844 195.902344 164.171875 197.640625 C 163.183594 197.21875 162.226562 197.015625 161.105469 197.640625 C 159.757812 198.386719 159.039062 199.835938 158.890625 201.328125 C 158.769531 202.589844 159.210938 204 160.199219 204.832031 C 160.242188 204.859375 160.292969 204.882812 160.335938 204.910156 C 158.632812 209.414062 158.242188 215.191406 162.414062 217.605469 C 163.238281 218.066406 164.128906 218.433594 165.0625 218.691406 C 164.101562 219.761719 163.617188 221.335938 163.65625 222.71875 C 163.722656 224.578125 164.640625 226.25 165.957031 227.15625 C 165.601562 229.164062 165.550781 231.074219 165.816406 232.476562 C 166.355469 235.09375 167.644531 236.953125 169.332031 238.128906 C 170.371094 236.3125 171.894531 234.007812 174.378906 231.726562 L 174.839844 231.050781 C 176.664062 231.09375 178.476562 231.117188 180.296875 231.128906 C 180.96875 233.527344 182.1875 235.960938 184.050781 238.144531 C 192.519531 248.074219 201.324219 248.316406 205.460938 248.847656 C 209.210938 249.308594 209.996094 246.726562 210.25 246.144531 C 210.527344 245.550781 208.136719 245.277344 208.136719 245.277344 C 208.671875 244.777344 208.144531 244.398438 208.144531 244.398438 C 197.046875 240.503906 192.277344 237.597656 188.640625 231.621094 C 188.546875 231.46875 188.484375 231.320312 188.386719 231.15625 C 202.554688 231.128906 216.722656 230.859375 230.890625 232.40625 C 231.859375 232.511719 232.792969 232.597656 233.730469 232.691406 C 230.527344 238.199219 225.867188 241.292969 215.683594 245.617188 C 215.683594 245.617188 215.167969 246.023438 215.738281 246.484375 C 215.738281 246.484375 213.386719 246.917969 213.6875 247.492188 C 213.964844 248.046875 214.925781 250.582031 218.640625 249.875 C 222.734375 249.089844 231.496094 248.277344 239.320312 237.832031 C 240.441406 236.351562 241.25 234.78125 241.84375 233.191406 C 243.53125 233.257812 245.246094 233.285156 246.992188 233.300781 C 247.449219 234.519531 248.960938 235.1875 250.222656 234.902344 C 251.269531 234.65625 252.1875 233.859375 252.648438 232.882812 C 253.285156 231.527344 253.105469 229.734375 252.273438 228.472656 C 254.671875 229.136719 256.714844 226.964844 257.347656 224.46875 C 257.605469 223.441406 257.511719 222.257812 257.148438 221.214844 C 258.257812 219.777344 258.066406 217.414062 257.183594 215.652344 Z M 217.625 169.738281 C 217.84375 169.574219 218.03125 169.398438 218.144531 169.15625 C 217.871094 169.25 217.722656 169.46875 217.625 169.738281 Z M 217.625 169.738281 C 217.84375 169.574219 218.03125 169.398438 218.144531 169.15625 C 217.871094 169.25 217.722656 169.46875 217.625 169.738281 " fill-opacity="1" fill-rule="nonzero"/></g><path fill="#dd8470" d="M 192.734375 236.613281 C 192.519531 234.796875 192.320312 232.960938 192.101562 231.144531 C 190.855469 231.15625 189.628906 231.15625 188.386719 231.15625 C 188.484375 231.320312 188.546875 231.46875 188.640625 231.621094 C 189.816406 233.570312 191.132812 235.1875 192.734375 236.613281 " fill-opacity="1" fill-rule="nonzero"/><path fill="#dd8470" d="M 193.789062 245.917969 C 190.699219 244.414062 187.347656 242.007812 184.050781 238.144531 C 182.1875 235.960938 180.96875 233.527344 180.296875 231.128906 C 179.714844 231.128906 179.125 231.117188 178.542969 231.101562 C 180.527344 235.5 183.039062 239.761719 184.484375 244.398438 C 186.605469 251.207031 188.183594 258.125 189.222656 265.179688 C 190.371094 272.882812 192.464844 281.777344 192.613281 290.21875 C 193.871094 290.070312 195.113281 289.917969 196.34375 289.796875 C 195.800781 280.386719 195.992188 270.941406 195.261719 261.5 C 194.855469 256.292969 194.34375 251.101562 193.789062 245.917969 " fill-opacity="1" fill-rule="nonzero"/><path fill="#dd8470" d="M 215.683594 245.617188 C 216.101562 245.441406 216.507812 245.265625 216.914062 245.089844 C 216.882812 240.527344 216.722656 235.960938 216.371094 231.386719 C 211.253906 231.1875 206.136719 231.128906 201.011719 231.128906 C 201.445312 234.820312 201.90625 238.511719 202.328125 242.199219 C 204.050781 242.917969 205.972656 243.640625 208.144531 244.398438 C 208.144531 244.398438 208.671875 244.777344 208.136719 245.277344 C 208.136719 245.277344 210.527344 245.550781 210.25 246.144531 C 209.996094 246.726562 209.210938 249.308594 205.460938 248.847656 C 204.769531 248.761719 203.945312 248.683594 203.027344 248.5625 C 203.472656 252.875 203.878906 257.1875 204.164062 261.5 C 204.785156 270.804688 204.5 280.152344 205.097656 289.457031 C 208.226562 289.402344 211.332031 289.394531 214.429688 289.394531 C 215.5625 276.257812 216.734375 263.117188 216.898438 249.972656 C 214.605469 249.742188 213.914062 247.953125 213.6875 247.492188 C 213.386719 246.917969 215.738281 246.484375 215.738281 246.484375 C 215.167969 246.023438 215.683594 245.617188 215.683594 245.617188 " fill-opacity="1" fill-rule="nonzero"/><path fill="#dd8470" d="M 225.730469 240.640625 C 229.460938 238.335938 231.835938 235.933594 233.730469 232.691406 C 232.792969 232.605469 231.851562 232.511719 230.890625 232.40625 C 229.960938 232.308594 229.027344 232.214844 228.109375 232.136719 C 227.175781 232.039062 226.246094 231.972656 225.3125 231.902344 C 225.53125 234.820312 225.660156 237.726562 225.730469 240.640625 " fill-opacity="1" fill-rule="nonzero"/><path fill="#dd8470" d="M 239.320312 237.832031 C 234.769531 243.910156 229.902344 246.726562 225.816406 248.167969 C 225.746094 262.003906 224.5 275.8125 223.296875 289.609375 C 224.949219 289.742188 226.648438 289.890625 228.335938 289.960938 C 228.90625 269.789062 237.332031 251.640625 244.925781 233.273438 C 243.882812 233.257812 242.855469 233.234375 241.84375 233.191406 C 241.25 234.78125 240.441406 236.351562 239.320312 237.832031 " fill-opacity="1" fill-rule="nonzero"/><path fill="#dd8470" d="M 179.410156 260.4375 C 178.132812 254.3125 176.640625 248.164062 174.332031 242.332031 C 173.398438 239.96875 172.195312 237.730469 171.042969 235.480469 C 168.972656 238.324219 168.132812 240.71875 167.40625 241.445312 C 167.632812 243.707031 169.660156 248.226562 170.554688 250.941406 C 173.257812 258.855469 175.730469 266.996094 177.535156 275.132812 C 178.210938 278.75 179.113281 282.367188 180.238281 285.984375 C 181.039062 289.011719 180.953125 290.234375 183.488281 290.628906 C 183.3125 287.40625 182.789062 284.167969 182.414062 281.054688 C 181.59375 274.171875 180.828125 267.230469 179.410156 260.4375 " fill-opacity="1" fill-rule="nonzero"/><path fill="#dd8470" d="M 164.757812 213.21875 L 164.558594 207.628906 C 164.632812 206.839844 163.660156 206.421875 163.054688 206.765625 C 161.542969 207.613281 160.726562 210.082031 160.828125 211.734375 C 160.949219 213.824219 162.621094 214.820312 164.515625 215.03125 C 165.550781 215.144531 165.765625 213.429688 164.757812 213.21875 " fill-opacity="1" fill-rule="nonzero"/><path fill="#dd8470" d="M 171.238281 205.476562 C 171.558594 205.46875 171.964844 205.46875 172.371094 205.492188 C 172.261719 205.058594 172.300781 204.570312 172.449219 204.121094 C 172.519531 203.9375 172.691406 203.746094 172.925781 203.773438 C 173.609375 203.8125 174 204.191406 174.207031 204.703125 C 174.527344 204.042969 175.070312 203.105469 175.84375 202.972656 C 176.164062 202.917969 176.515625 203.171875 176.40625 203.539062 C 176.207031 204.164062 175.597656 204.582031 175.296875 205.179688 C 175.015625 205.765625 174.910156 206.335938 174.890625 206.972656 C 174.890625 207 174.882812 207 174.882812 207.023438 C 174.882812 207.042969 174.890625 207.050781 174.890625 207.066406 C 174.925781 207.285156 174.734375 207.511719 174.503906 207.40625 C 174.328125 207.449219 174.136719 207.40625 174.042969 207.207031 C 174.015625 207.164062 174.015625 207.121094 174 207.078125 C 173.707031 206.875 173.410156 206.6875 173.03125 206.605469 C 172.449219 206.457031 171.84375 206.441406 171.238281 206.433594 C 170.625 206.414062 170.625 205.492188 171.238281 205.476562 Z M 169.125 211.058594 C 171.921875 214.3125 176.433594 213.078125 177.894531 209.765625 C 179.339844 209.929688 180.824219 209.425781 181.523438 207.988281 C 182.285156 206.441406 181.917969 204.832031 180.917969 203.921875 C 181.082031 202.796875 180.570312 201.5625 179.324219 200.625 C 178.476562 199.972656 177.460938 199.835938 176.570312 200.050781 C 175.445312 198.007812 172.121094 197.191406 170.042969 198.972656 C 168.597656 200.207031 168.25 201.929688 169.046875 203.648438 C 169.261719 204.09375 169.601562 204.460938 170.007812 204.789062 C 168.304688 206.511719 167.480469 209.144531 169.125 211.058594 " fill-opacity="1" fill-rule="nonzero"/><path fill="#dd8470" d="M 218.144531 169.15625 C 217.871094 169.25 217.722656 169.46875 217.625 169.738281 C 217.84375 169.574219 218.03125 169.398438 218.144531 169.15625 " fill-opacity="1" fill-rule="nonzero"/><path fill="#dd8470" d="M 214.855469 167.433594 C 215.9375 167.148438 216.847656 167.894531 217.261719 168.84375 C 217.574219 168.488281 218.03125 168.285156 218.667969 168.261719 C 218.898438 168.246094 219.0625 168.449219 219.074219 168.652344 C 219.097656 169.070312 218.976562 169.453125 218.804688 169.808594 C 219.859375 169.617188 220.898438 169.84375 221.332031 170.863281 C 221.425781 171.105469 221.261719 171.445312 220.949219 171.347656 C 220.136719 171.105469 219.496094 170.835938 218.640625 171.121094 C 218.25 171.257812 217.859375 171.433594 217.453125 171.566406 C 217.398438 171.703125 217.332031 171.824219 217.238281 171.9375 C 216.976562 172.234375 216.425781 172.070312 216.34375 171.6875 C 216.34375 171.652344 216.34375 171.597656 216.328125 171.554688 C 216.277344 171.460938 216.265625 171.339844 216.300781 171.242188 C 216.300781 170.660156 216.457031 170.089844 216.265625 169.503906 C 216.023438 168.773438 215.546875 168.417969 214.855469 168.175781 C 214.507812 168.054688 214.464844 167.539062 214.855469 167.433594 Z M 211.332031 176.277344 C 212.457031 177.644531 213.964844 177.765625 215.140625 177.128906 C 216.179688 177.753906 217.644531 177.765625 218.96875 177.050781 C 219.867188 176.558594 220.378906 175.703125 220.542969 174.796875 C 222.707031 174.617188 224.679688 172.277344 224.3125 169.808594 C 224.085938 168.191406 222.8125 166.398438 221.003906 166.417969 C 220.25 166.425781 219.601562 166.632812 219.003906 166.929688 C 218.144531 164.582031 215.953125 162.722656 213.375 163.523438 C 211.132812 164.203125 209.609375 166.359375 209.550781 168.636719 C 209.523438 169.886719 210.171875 170.945312 210.96875 171.800781 C 210.242188 173.15625 210.308594 175.027344 211.332031 176.277344 " fill-opacity="1" fill-rule="nonzero"/><path fill="#dd8470" d="M 246.992188 218.71875 C 246.449219 219.101562 245.859375 219.195312 245.398438 219.753906 C 244.941406 220.320312 244.613281 220.980469 244.167969 221.582031 C 243.925781 221.9375 243.304688 221.746094 243.453125 221.285156 C 243.453125 221.269531 243.453125 221.257812 243.46875 221.230469 C 243.25 221.257812 243.128906 221.199219 242.898438 221.066406 C 242.519531 220.847656 242.171875 220.847656 241.746094 220.972656 C 241.261719 221.136719 240.953125 220.386719 241.398438 220.144531 C 241.84375 219.902344 242.359375 219.761719 242.84375 219.910156 C 242.683594 219.371094 242.683594 218.789062 242.871094 218.207031 C 242.976562 217.902344 243.410156 217.71875 243.652344 218 C 244.007812 218.433594 244.222656 219.195312 244.085938 219.789062 C 244.316406 219.414062 244.570312 219.042969 244.898438 218.746094 C 245.425781 218.257812 246.394531 217.730469 247.042969 218.328125 C 247.167969 218.449219 247.113281 218.625 246.992188 218.71875 Z M 249.945312 217.050781 C 249.367188 216.929688 248.800781 216.980469 248.246094 217.121094 C 247.9375 214.851562 246.394531 212.78125 243.988281 212.535156 C 241.667969 212.292969 239.710938 214.269531 238.941406 216.234375 C 238.371094 217.660156 238.699219 219.101562 239.441406 220.304688 C 238.464844 221.433594 238.089844 223.113281 238.777344 224.511719 C 239.539062 226.058594 240.941406 226.570312 242.207031 226.273438 C 243.035156 227.058594 244.328125 227.398438 245.746094 227.074219 C 246.800781 226.832031 247.574219 226.070312 247.960938 225.164062 C 250.164062 225.5 252.707031 223.683594 252.785156 221.09375 C 252.835938 219.195312 251.867188 217.484375 249.945312 217.050781 " fill-opacity="1" fill-rule="nonzero"/><path fill="#dd8470" d="M 191.507812 212.992188 C 194.535156 217.4375 200.875 222.625 209.179688 222.683594 C 220.046875 222.757812 229.667969 213.398438 230.632812 210.605469 C 231.597656 207.808594 231.777344 205.261719 231.722656 201.828125 C 231.734375 195.425781 231.734375 189.375 212.109375 188.136719 C 192.261719 186.886719 190.082031 195.96875 190.324219 201.90625 C 190.308594 202.324219 189.304688 209.765625 191.507812 212.992188 " fill-opacity="1" fill-rule="nonzero"/><path fill="#dd8470" d="M 178.539062 191.367188 C 178.238281 189.222656 179.050781 187.378906 179.261719 185.304688 C 179.324219 184.71875 178.523438 184.46875 178.160156 184.84375 C 176.496094 186.535156 176.605469 189.617188 177.257812 191.722656 C 177.515625 192.570312 178.652344 192.199219 178.539062 191.367188 " fill-opacity="1" fill-rule="nonzero"/><path fill="#dd8470" d="M 197.007812 169.222656 C 197.035156 168.875 197.332031 168.6875 197.53125 168.433594 C 197.878906 167.984375 198.253906 167.671875 198.285156 167.0625 C 198.300781 166.78125 198.121094 166.523438 197.894531 166.378906 C 197.152344 165.917969 196.097656 166.382812 195.546875 166.957031 C 194.957031 167.570312 194.652344 168.375 194.632812 169.222656 C 194.601562 170.777344 196.898438 170.738281 197.007812 169.222656 " fill-opacity="1" fill-rule="nonzero"/><path fill="#dd8470" d="M 229.082031 181.957031 C 229.988281 182.496094 231.417969 183.171875 232.421875 182.582031 C 232.917969 182.289062 233.039062 181.679688 232.785156 181.1875 C 232.386719 180.414062 231.285156 180.148438 230.519531 179.855469 C 229.671875 179.53125 228.964844 178.972656 228.410156 178.257812 C 227.621094 177.226562 225.925781 178.566406 226.621094 179.648438 C 227.253906 180.621094 228.082031 181.363281 229.082031 181.957031 " fill-opacity="1" fill-rule="nonzero"/><path fill="#dd8470" d="M 170.25 232.328125 C 170.707031 232.34375 171.03125 231.871094 170.917969 231.441406 C 170.65625 230.390625 169.859375 229.652344 169.929688 228.511719 C 169.980469 227.503906 168.472656 227.339844 168.214844 228.277344 C 167.785156 229.835938 168.246094 232.269531 170.25 232.328125 " fill-opacity="1" fill-rule="nonzero"/><path fill="#dd8470" d="M 198.890625 226.867188 C 198.339844 227.609375 198.542969 228.878906 198.679688 229.734375 C 198.839844 230.695312 200.453125 230.695312 200.605469 229.734375 C 200.742188 228.878906 200.949219 227.609375 200.394531 226.867188 C 199.980469 226.3125 199.308594 226.3125 198.890625 226.867188 " fill-opacity="1" fill-rule="nonzero"/><path fill="#dd8470" d="M 227.460938 221.882812 C 227.039062 222.3125 226.933594 223.203125 227.460938 223.617188 C 227.898438 223.949219 228.289062 224.203125 228.859375 224.160156 C 230.214844 224.058594 230.410156 222.328125 229.171875 221.851562 C 229.175781 221.863281 229.179688 221.871094 229.1875 221.882812 C 228.660156 221.476562 227.972656 221.363281 227.460938 221.882812 " fill-opacity="1" fill-rule="nonzero"/><path fill="#dd8470" d="M 237.613281 201.855469 C 237.996094 202.039062 238.578125 201.730469 238.402344 201.246094 C 238.222656 200.746094 238.101562 200.230469 238.070312 199.707031 C 238.011719 198.847656 236.789062 198.84375 236.742188 199.707031 C 236.683594 200.613281 236.710938 201.417969 237.613281 201.855469 " fill-opacity="1" fill-rule="nonzero"/><path fill="#402104" d="M 208.878906 208.207031 C 209.75 207.730469 210.578125 207.984375 211.496094 207.9375 C 211.78125 207.921875 211.84375 207.59375 211.632812 207.433594 C 210.757812 206.769531 209.363281 206.992188 208.488281 207.527344 C 208.054688 207.792969 208.4375 208.449219 208.878906 208.207031 " fill-opacity="1" fill-rule="nonzero"/><path fill="#402104" d="M 214.308594 210.953125 C 213.257812 211.984375 212.386719 212.765625 210.914062 213.144531 C 209.117188 213.613281 207.1875 213.039062 205.976562 211.636719 C 205.570312 211.15625 204.945312 211.835938 205.308594 212.308594 C 206.617188 213.992188 208.605469 214.550781 210.667969 214.296875 C 212.296875 214.097656 214.578125 213.101562 214.839844 211.257812 C 214.882812 210.960938 214.554688 210.707031 214.308594 210.953125 " fill-opacity="1" fill-rule="nonzero"/><path fill="#402104" d="M 201.683594 201.222656 C 201.449219 201.3125 201.277344 201.476562 201.128906 201.667969 C 200.691406 201.949219 200.402344 202.515625 200.417969 203.128906 C 200.4375 204.21875 201.417969 204.875 202.421875 204.660156 C 204.574219 204.21875 203.492188 200.539062 201.683594 201.222656 " fill-opacity="1" fill-rule="nonzero"/><path fill="#402104" d="M 217.121094 201.796875 C 217.113281 201.800781 217.113281 201.8125 217.109375 201.820312 C 216.667969 202.1875 216.398438 202.945312 216.53125 203.542969 C 216.796875 204.71875 217.964844 205.234375 218.976562 204.550781 C 220.027344 203.839844 220.046875 202.554688 219.246094 201.65625 C 218.628906 200.964844 217.570312 200.875 217.121094 201.796875 " fill-opacity="1" fill-rule="nonzero"/><path fill="#402104" d="M 205.472656 198.445312 C 204.878906 195.617188 199.90625 196.78125 198.308594 197.816406 C 197.699219 198.207031 198.113281 199.039062 198.777344 198.929688 C 199.808594 198.757812 200.78125 198.351562 201.839844 198.246094 C 203.058594 198.128906 203.820312 198.648438 204.90625 199.011719 C 205.261719 199.128906 205.539062 198.769531 205.472656 198.445312 " fill-opacity="1" fill-rule="nonzero"/><path fill="#402104" d="M 222.535156 197.96875 C 221.105469 194.640625 216.269531 195.660156 214.292969 197.742188 C 213.8125 198.246094 214.441406 199.140625 215.050781 198.734375 C 216.21875 197.953125 217.316406 197.398438 218.75 197.433594 C 219.964844 197.460938 220.941406 198.257812 222.046875 198.601562 C 222.445312 198.726562 222.671875 198.289062 222.535156 197.96875 " fill-opacity="1" fill-rule="nonzero"/><path fill="#b2784a" d="M 195.335938 208.933594 C 195.339844 208.933594 195.339844 208.9375 195.347656 208.9375 C 195.277344 208.917969 195.289062 208.921875 195.335938 208.933594 Z M 198.175781 206.359375 C 197.835938 206.277344 197.488281 206.265625 197.140625 206.265625 C 195.996094 205.898438 194.714844 205.890625 193.5 206.09375 C 192.625 206.242188 191.523438 206.703125 191.289062 207.671875 C 191.011719 208.851562 191.824219 209.683594 192.792969 210.1875 C 193.84375 210.734375 195.195312 210.804688 196.347656 210.765625 C 197.652344 210.730469 198.808594 210.328125 199.488281 209.148438 C 200.175781 207.964844 199.445312 206.636719 198.175781 206.359375 " fill-opacity="1" fill-rule="nonzero"/><path fill="#b2784a" d="M 224.933594 208.546875 C 224.933594 208.546875 224.929688 208.550781 224.929688 208.550781 C 224.914062 208.550781 224.914062 208.546875 224.863281 208.5625 C 224.886719 208.554688 224.914062 208.550781 224.933594 208.546875 Z M 227.855469 205.816406 C 227.691406 205.800781 227.53125 205.816406 227.371094 205.847656 C 226.3125 205.328125 225.175781 205.238281 224.003906 205.414062 C 222.285156 205.675781 221.386719 207.476562 222.121094 209.023438 C 222.78125 210.417969 224.507812 210.402344 225.773438 210.078125 C 226.789062 209.824219 228.261719 209.378906 228.996094 208.582031 C 230 207.492188 229.25 205.929688 227.855469 205.816406 " fill-opacity="1" fill-rule="nonzero"/></svg>